<?xml version="1.0"?>
<svg xmlns="http://www.w3.org/2000/svg" height="512px" viewBox="0 -46 512 512" width="512px" class=""><g transform="matrix(-1 0 0 1 512 0)"><path d="m332 90c-41.148438 0-75.839844 27.609375-86.570312 65.320312l82.910156 94.679688s57.859375.078125 59.929687.238281c20.570313-16.488281 33.730469-41.828125 33.730469-70.238281 0-49.710938-40.289062-90-90-90zm0 0" fill="#ffcf57" data-original="#FFCF57" class=""/><path d="m462 330c0 44.179688-35.820312 80-80 80h-292c-44.179688 0-80-35.820312-80-80s35.820312-80 80-80h1.660156c9.519532-56.75 58.878906-100 118.339844-100 59.324219 0 108.789062 43.113281 118.339844 100h53.660156c44.480469 0 80 36.109375 80 80zm0 0" fill="#e9fffb" data-original="#E9FFFB" class="" style="fill:#5AEED4" data-old_color="#58EAD0"/><path d="m240 190c0 5.523438-4.476562 10-10 10s-10-4.476562-10-10 4.476562-10 10-10 10 4.476562 10 10zm0 0" data-original="#000000" class="active-path" style="fill:#FFFDFD" data-old_color="#000000"/><path d="m90 420h292c49.625 0 90-40.375 90-90 0-40.066406-26.273438-74.433594-63.199219-85.925781 14.914063-17.8125 23.199219-40.320313 23.199219-64.074219 0-55.140625-44.859375-100-100-100-41.15625 0-78.082031 25.570312-93 63.25-9.46875-2.160156-19.1875-3.25-29-3.25-61.007812 0-112.957031 42.257812-126.570312 100.238281-46.570313 3.378907-83.429688 42.347657-83.429688 89.761719 0 49.625 40.375 90 90 90zm242-320c44.113281 0 80 35.886719 80 80 0 23.167969-9.855469 44.847656-27.15625 60.054688-.949219-.03125-1.898438-.054688-2.84375-.054688h-45.484375c-9.71875-41.125-39.074219-75.101562-78.371094-90.769531 12.277344-29.394531 41.425781-49.230469 73.855469-49.230469zm-242 160h1.660156c4.886719 0 9.054688-3.527344 9.863282-8.347656 8.90625-53.105469 54.53125-91.652344 108.476562-91.652344 55.390625 0 99.953125 40.871094 108.476562 91.65625.808594 4.816406 4.980469 8.34375 9.863282 8.34375h53.660156c39.164062 0 70 32.210938 70 70 0 38.597656-31.402344 70-70 70h-292c-38.597656 0-70-31.402344-70-70s31.402344-70 70-70zm0 0" data-original="#000000" class="active-path" style="fill:#FFFDFD" data-old_color="#000000"/><path d="m129.453125 266.480469c5.449219.917969 10.605469-2.761719 11.519531-8.203125 4.582032-27.289063 24.824219-49.3125 51.570313-56.105469 5.351562-1.359375 8.589843-6.800781 7.230469-12.152344-1.363282-5.355469-6.796876-8.589843-12.15625-7.230469-34.421876 8.746094-60.472657 37.074219-66.371094 72.175782-.910156 5.445312 2.761718 10.601562 8.207031 11.515625zm0 0" data-original="#000000" class="active-path" style="fill:#FFFDFD" data-old_color="#000000"/><path d="m322 10v40c0 5.523438 4.476562 10 10 10s10-4.476562 10-10v-40c0-5.523438-4.476562-10-10-10s-10 4.476562-10 10zm0 0" data-original="#000000" class="active-path" style="fill:#FFFDFD" data-old_color="#000000"/><path d="m502 170h-40c-5.523438 0-10 4.476562-10 10s4.476562 10 10 10h40c5.523438 0 10-4.476562 10-10s-4.476562-10-10-10zm0 0" data-original="#000000" class="active-path" style="fill:#FFFDFD" data-old_color="#000000"/><path d="m204.71875 52.71875c-3.90625 3.90625-3.90625 10.238281 0 14.144531l28.289062 28.289063c3.90625 3.90625 10.238282 3.90625 14.144532 0s3.90625-10.238282 0-14.144532l-28.289063-28.289062c-3.910156-3.90625-10.238281-3.90625-14.144531 0zm0 0" data-original="#000000" class="active-path" style="fill:#FFFDFD" data-old_color="#000000"/><path d="m445.140625 52.71875-28.292969 28.289062c-3.902344 3.90625-3.902344 10.238282 0 14.144532 3.90625 3.90625 10.238282 3.90625 14.144532 0l28.289062-28.289063c3.90625-3.90625 3.90625-10.238281 0-14.144531s-10.234375-3.90625-14.140625 0zm0 0" data-original="#000000" class="active-path" style="fill:#FFFDFD" data-old_color="#000000"/></g> </svg>
